<svg fill="none" height="120" viewBox="0 0 65 120" width="65" xmlns="http://www.w3.org/2000/svg"><g fill="#0b1c3f"><path clip-rule="evenodd" d="m25.8095 22h12.381c2.1039 0 3.8095 1.7056 3.8095 3.8095v12.381c0 2.1039-1.7056 3.8095-3.8095 3.8095h-12.381c-2.1039 0-3.8095-1.7056-3.8095-3.8095v-12.381c0-2.1039 1.7056-3.8095 3.8095-3.8095zm12.381 18.5714c1.3149 0 2.3809-1.066 2.3809-2.3809v-12.381c0-1.3149-1.066-2.3809-2.3809-2.3809h-12.381c-1.3149 0-2.3809 1.066-2.3809 2.3809v12.381c0 1.3149 1.066 2.3809 2.3809 2.3809z" fill-rule="evenodd"/><path d="m37.2381 28.9048h-2.8572c-.3944 0-.7142.3198-.7142.7143s.3198.7143.7142.7143h.8858l-3.3905 3.3904-1.9048-1.9047c-.5054-.5037-1.3231-.5037-1.8285 0l-2.4858 2.4095c-.2785.2789-.2785.7306 0 1.0095.1333.1349.3152.2104.5048.2095.1898.002.3722-.0737.5048-.2095l2.3523-2.3524 1.9048 1.9048c.5087.5048 1.3294.5048 1.8381 0l3.7238-3.7238v1.4095c0 .3945.3198.7143.7143.7143s.7143-.3198.7143-.7143v-2.8571c-.0042-.3782-.2988-.6895-.6762-.7143z"/></g></svg>